<?xml version="1.0" standalone="no"?>
<!DOCTYPE svg PUBLIC "-//W3C//DTD SVG 20010904//EN"
 "http://www.w3.org/TR/2001/REC-SVG-20010904/DTD/svg10.dtd">
<svg version="1.0" xmlns="http://www.w3.org/2000/svg"
 width="512.000000pt" height="512.000000pt" viewBox="0 0 512.000000 512.000000"
 preserveAspectRatio="xMidYMid meet">
<metadata>
Created by potrace 1.11, written by Peter Selinger 2001-2013
</metadata>
<g transform="translate(0.000000,512.000000) scale(0.100000,-0.100000)"
fill="#000000" stroke="none">
<path d="M4400 5085 c-52 -17 -183 -61 -290 -98 -107 -37 -346 -118 -530 -181
-184 -62 -342 -116 -350 -120 -8 -3 -55 -19 -105 -35 -49 -16 -263 -89 -475
-161 -212 -72 -473 -161 -580 -197 -107 -36 -199 -71 -205 -78 -7 -8 -10 -530
-10 -1523 1 -832 -1 -1512 -2 -1512 -2 0 -25 11 -51 24 -181 90 -413 112 -632
59 -137 -33 -313 -136 -397 -233 -108 -125 -148 -232 -148 -390 1 -157 50
-273 165 -391 153 -157 347 -237 585 -244 342 -10 632 144 759 401 63 128 60
50 60 1576 1 768 3 1398 6 1401 3 3 147 53 320 112 173 59 520 176 770 262
702 239 863 293 869 293 3 0 6 -430 6 -955 0 -525 -4 -955 -8 -955 -4 0 -29
11 -55 24 -107 53 -245 83 -390 84 -433 2 -786 -290 -784 -648 2 -315 277
-580 660 -636 93 -13 247 -5 342 20 266 67 451 216 538 433 l27 68 3 1505 c1
828 1 1645 0 1816 l-3 311 -95 -32z"/>
</g>
</svg>
